<?xml version="1.0" encoding="UTF-8"?>
<svg width="24px" height="24px" viewBox="0 0 24 24" version="1.1" xmlns="http://www.w3.org/2000/svg" xmlns:xlink="http://www.w3.org/1999/xlink">
    <title>Instegram icon</title>
    <g id="Instegram-icon" stroke="none" stroke-width="1" fill="none" fill-rule="evenodd">
        <path d="M11.9489295,2 C9.24585714,2 8.90688063,2.01247166 7.84625245,2.06048753 C6.7868728,2.1085034 6.06459687,2.27562358 5.43221526,2.52318594 C4.77860861,2.77573696 4.22176321,3.11621315 3.66866341,3.6680839 C3.11618787,4.22057823 2.77721135,4.77619048 2.5218865,5.42845805 C2.27530137,6.06201814 2.10862231,6.78225624 2.06117808,7.83985261 C2.01061252,8.90056689 2,9.23792517 2,11.9380385 C2,14.6375283 2.01061252,14.9755102 2.06117808,16.0362245 C2.10862231,17.0931973 2.27530137,17.8153061 2.5218865,18.4469955 C2.77721135,19.1005102 3.11618787,19.6548753 3.66866341,20.2079932 C4.22176321,20.7604875 4.77860861,21.0997166 5.43221526,21.3528912 C6.06459687,21.5998299 6.7868728,21.7681973 7.84625245,21.814966 C8.90688063,21.8636054 9.24585714,21.8754535 11.9489295,21.8754535 C14.6507534,21.8754535 14.9884814,21.8636054 16.0503581,21.814966 C17.1084892,21.7681973 17.8320137,21.5998299 18.4650196,21.3528912 C19.118002,21.0997166 19.6748474,20.7604875 20.2273229,20.2079932 C20.7797984,19.6548753 21.1193992,19.1005102 21.3734755,18.4469955 C21.6206849,17.8153061 21.7879883,17.0931973 21.8360568,16.0362245 C21.8847495,14.9755102 21.8966106,14.6375283 21.8966106,11.9380385 C21.8966106,9.23792517 21.8847495,8.90056689 21.8360568,7.83985261 C21.7879883,6.78225624 21.6206849,6.06201814 21.3734755,5.42845805 C21.1193992,4.77619048 20.7797984,4.22057823 20.2273229,3.6680839 C19.6748474,3.11621315 19.118002,2.77573696 18.4650196,2.52318594 C17.8320137,2.27562358 17.1084892,2.1085034 16.0503581,2.06048753 C14.9884814,2.01247166 14.6507534,2 11.9489295,2 M11.9489295,3.79030612 C14.6045577,3.79030612 14.9185636,3.80090703 15.9685793,3.8489229 C16.9380646,3.8925737 17.4655695,4.05595238 17.8151585,4.19064626 C18.2796125,4.37148526 18.6117221,4.58599773 18.9588141,4.93520408 C19.3077789,5.2819161 19.5231507,5.61241497 19.7035636,6.07760771 C19.8384051,6.42743764 20.0013386,6.95311791 20.0462857,7.92216553 C20.0943542,8.97103175 20.1037182,9.28407029 20.1037182,11.9380385 C20.1037182,14.5913832 20.0943542,14.9044218 20.0462857,15.9545351 C20.0013386,16.9223356 19.8384051,17.4486395 19.7035636,17.799093 C19.5231507,18.262415 19.3077789,18.5935374 18.9588141,18.940873 C18.6117221,19.2894558 18.2796125,19.5045918 17.8151585,19.6848073 C17.4655695,19.8201247 16.9380646,19.9828798 15.9685793,20.0271542 C14.9185636,20.0745465 14.6045577,20.085771 11.9489295,20.085771 C9.29142857,20.085771 8.97804697,20.0745465 7.92803131,20.0271542 C6.95854599,19.9828798 6.43291389,19.8201247 6.08145205,19.6848073 C5.61699804,19.5045918 5.28488845,19.2894558 4.93779648,18.940873 C4.5888317,18.5935374 4.37345988,18.262415 4.19179843,17.799093 C4.05695695,17.4486395 3.89527202,16.9223356 3.84970059,15.9545351 C3.80163209,14.9044218 3.7922681,14.5913832 3.7922681,11.9380385 C3.7922681,9.28407029 3.80163209,8.97103175 3.84970059,7.92216553 C3.89527202,6.95311791 4.05695695,6.42743764 4.19179843,6.07760771 C4.37345988,5.61241497 4.5888317,5.2819161 4.93779648,4.93520408 C5.28488845,4.58599773 5.61699804,4.37148526 6.08145205,4.19064626 C6.43291389,4.05595238 6.95854599,3.8925737 7.92803131,3.8489229 C8.97804697,3.80090703 9.29142857,3.79030612 11.9489295,3.79030612 M11.9489295,6.83463719 C9.12724658,6.83463719 6.83868689,9.12069161 6.83868689,11.9380385 C6.83868689,14.7560091 9.12724658,17.0420635 11.9489295,17.0420635 C14.7687397,17.0420635 17.0579237,14.7560091 17.0579237,11.9380385 C17.0579237,9.12069161 14.7687397,6.83463719 11.9489295,6.83463719 M11.9489295,8.62619048 C13.7792779,8.62619048 15.2650313,10.1090703 15.2650313,11.9380385 C15.2650313,13.7663832 13.7792779,15.2505102 11.9489295,15.2505102 C10.1173327,15.2505102 8.63282779,13.7663832 8.63282779,11.9380385 C8.63282779,10.1090703 10.1173327,8.62619048 11.9489295,8.62619048 Z M17.2589374,5.44068027 C17.9175382,5.44068027 18.4525342,5.97446712 18.4525342,6.6335941 C18.4525342,7.29209751 17.9175382,7.82588435 17.2589374,7.82588435 C16.5984638,7.82588435 16.064092,7.29209751 16.064092,6.6335941 C16.064092,5.97446712 16.5984638,5.44068027 17.2589374,5.44068027 Z" id="Combined-Shape" fill="#262626"></path>
    </g>
</svg>